Patient4_TMGait_0pt7_01_left_28_EMG.mot
version=1
nRows=13
nColumns=33
inDegrees=no
endheader
time	1LAddLong	2LGlutMax	3LGlutMed	4LIliopsoas	5LSemiMemb	6LBicFemLong	7LRecFem	8LVastMed	9LVastLat	10LGasMed	11LTibAnt	12lTibPost	13LPeroneusLong	14LSol	15LExtDigLong	16LFlexDigLong	17RAddLong	18RGlutMax	19RGlutMed	20RIliopsoas	21RSemiMemb	22RBicFemLong	23RRecFem	24RVastMed	25RVastLat	26RGasMed	27RTibAnt	28RTibPost	29RPeroneusLong	30RSol	31RExtDigLong	32RFlexDigLong
33.483	0.02243	0.55435	-0.056763	0.003204	-0.001068	-0.098267	-0.10284	-0.001526	0.12009	-0.030823	-0.049591	-0.003815	0.04715	-0.025635	-0.015564	-0.013428	-0.016785	0.30991	0.48828	0.13931	0.011902	0.21637	0.00885	0.01297	-0.18066	-0.041809	0.04303	-0.14023	-0.30411	-0.40314	-0.002289	-0.010681
33.484	0.020447	0.59204	-0.028534	0.007172	-0.020294	-0.087738	-0.090332	0.003967	0.11307	-0.027466	-0.0354	0.002136	0.029449	-0.018311	0.012054	0.009308	-0.003815	0.30472	-0.044098	0.12161	-0.027008	0.20416	0.00351	0.036926	-0.081635	-0.009613	0.024109	0.12528	0.38162	0.13992	-0.001068	-0.006409
33.485	0.020142	0.58411	-0.01236	0.004578	-0.0177	-0.11475	-0.098114	0.006561	0.112	-0.019836	-0.037842	0.002136	0.030212	-0.0383	0.062561	-0.004425	-0.014801	0.34317	-0.37796	0.14618	-0.038147	0.074768	0.047302	0.070343	-0.015106	-0.008698	0.056152	0.13229	0.064087	0.39444	-0.001068	-0.007019
33.486	0.017548	0.62286	-0.086365	0.006409	0.013123	-0.1181	-0.091858	0.007477	0.1088	-0.024872	-0.009766	0	-0.010223	-0.058899	0.070038	-0.010529	-0.019836	0.40848	0.10574	0.11459	-0.000153	-0.049286	0.16144	0.053253	-0.022888	0.011444	0.009155	-0.22858	0.45914	0.14679	0	-0.009003
33.487	0.01358	0.5751	-0.10498	0.001221	-0.003052	-0.086975	-0.090485	0.010071	0.1033	-0.027313	0.037994	0.00351	-0.024567	-0.060425	0.059052	-0.010529	0.007019	0.38727	0.71243	0.097198	0.072937	-0.09552	0.23117	-0.078735	-0.09613	0.002136	-0.048828	0.10803	0.66406	0.32547	0.001068	-0.002747
33.488	0.020142	0.53207	-0.053253	0.008087	-0.01709	-0.077362	-0.075226	0.002441	0.10773	-0.036469	0.034485	-0.002289	-0.015259	-0.047455	-0.010681	-0.012512	0.051727	0.36606	0.74356	0.052032	0.074768	-0.11261	0.25223	-0.1442	-0.19257	0.005188	-0.014038	0.23438	0.14557	0.29236	-0.002747	-0.00824
33.489	0.027924	0.5426	-0.001831	-0.002747	-0.019531	-0.082092	-0.10086	0.003204	0.10498	-0.046539	0.018311	0.005341	-0.011749	-0.068512	-0.17578	-0.008087	0.071106	0.38193	0.40604	0.020905	0.11841	-0.15656	0.27878	-0.092926	-0.20279	0.009613	-0.005798	0.024872	0.10117	-0.024261	-0.010376	-0.005493
33.49	0.024719	0.48508	0.00412	0.012817	-0.022888	-0.1062	-0.096283	0.002441	0.11383	-0.044556	0.032349	0.022888	-0.010223	-0.10529	-0.14145	-0.015411	0.050507	0.30899	0.000763	0.033569	0.14847	-0.11093	0.3569	0.00946	-0.14038	0.017548	0.075226	-0.027771	-0.14938	-0.028076	-0.003052	-0.003052
33.491	0.030365	0.47211	0.018311	0.011444	-0.00824	-0.068817	-0.10376	0.001373	0.1091	-0.056305	0.020142	0.024261	-0.021515	-0.10223	-0.031433	-0.002594	-0.036469	0.345	0.047455	-0.015411	-0.13107	-0.023804	0.2446	0.040436	-0.023651	0.032959	0.068665	-0.015564	-0.3122	0.13428	-0.00351	-0.007935
33.492	0.02655	0.42572	0.050659	0.002441	-0.013885	-0.039215	-0.10284	0.006409	0.11276	-0.046539	-0.001373	0.01236	-0.011902	-0.10025	0.003204	0.000763	-0.028534	0.3717	0.10635	-0.032806	-0.17685	0.030365	0.054932	-0.12436	0.035858	-0.009003	-0.056458	0.1004	-0.21988	0.015564	0.003052	-0.022583
33.493	0.016174	0.39276	0.074615	0.003967	-0.012054	-0.024567	-0.11963	0.010071	0.11017	-0.04776	0.018005	0.00946	-0.005646	-0.084229	0.022278	-0.00061	-0.001526	0.33142	0.075073	-0.024567	-0.094604	0.092773	0.049591	-0.07843	0.10941	-0.009155	0.012054	-0.023041	-0.049744	-0.11383	-0.002899	-0.024872
33.494	0.017548	0.38376	0.036926	0.001984	-0.004425	-0.019989	-0.1059	0.003967	0.089111	-0.026855	0.020599	0.001373	-0.041199	-0.068207	0.014648	-0.00351	0.000305	0.28931	0.010986	-0.047913	-0.095825	0.16388	-0.031891	0.030975	0.097504	-0.003357	0.054626	-0.053406	0.067291	-0.077972	-0.002594	-0.012512
33.495	0.011902	0.31601	0.010986	0.00824	-0.002899	0.010529	-0.1004	0.003052	0.07843	-0.021057	0.024872	0.004578	-0.025177	-0.035706	-0.001831	-0.016479	-0.047455	0.24872	0.14267	-0.027161	0.020752	0.14771	-0.30579	0.18219	0.13534	-0.001831	0.056305	-0.044098	-0.43015	-0.098877	-0.00061	-0.012817
